<?xml version="1.0" encoding="utf-8"?>
<!-- Generator: Adobe Illustrator 25.0.0, SVG Export Plug-In . SVG Version: 6.00 Build 0)  -->
<svg version="1.1" id="Layer_1" xmlns="http://www.w3.org/2000/svg" xmlns:xlink="http://www.w3.org/1999/xlink" x="0px" y="0px"
	 viewBox="0 0 120 120" style="enable-background:new 0 0 120 120;" xml:space="preserve">
<style type="text/css">
	.st0{fill:#FFFFFF;}
	.st1{fill:#294352;}
</style>
<circle class="st0" cx="60" cy="60" r="59.2"/>
<path class="st1" d="M93.1,80.1c-5,2.6-10.4,4.6-15.7,6.5h-0.2h-0.4c-0.7,0-1.5,0-2.2,0c-0.7,0-1.7,0.2-2.2-0.2
	c-1.3-0.6-1.5-2.8-1.7-4.1v-0.6l0.4-0.4c1.5-1.7,3.5-3.1,5.4-4.6c2.4-2,4.8-4.1,6.9-6.5c0.6-0.6,0.9-1.1,1.3-1.7
	c3.1-4.4,3.9-9.3,2.2-14.6l-0.7-2.6l1.1,0.9c-0.2-3.7-4.1-16.5-0.6-18.5c0.2-0.2,0.6-0.2,0.7-0.2L86.8,32h0.7
	c0.6-1.9,0.9-2.2-0.4-4.1L87,27.5v-1.1c0-0.2,0-0.4-0.2-0.6l-0.7-0.7l0.4-0.9c0.2-0.4,0.4-0.9,0.6-1.3h-2c0.6-2.2,0-2.4,2.4-3
	c-1.5-2.2-5-0.9-6.9,0.2l-0.4,0.2h-0.6c-0.9,0-2,0.6-2.6,1.1c-0.7,0.6-1.7,1.7-1.5,2.6l0.2,0.6l-0.4,0.6c-3.5,5-4.6,11.5-4.6,17.6
	c-0.2,3.9-0.4,6.3-4.3,7.6c-0.4-1.3-1.1-1.9-0.2-2.8c0.4-0.4,0.7-0.7,0.7-1.3c0-0.7-0.9-1.1-1.5-1.3l-1.7-0.6l1.3-1.1
	c0.2-0.4,0.7-1.1,0.6-1.7c-0.2-0.9-1.5-1.1-2.2-1.3l-1.7-0.4l0.7-1.7c0.4-0.6,0.6-1.5,0.4-2c-0.4-1.1-2-1.5-3.1-1.5l-1.5-0.2
	l0.2-1.9c0-0.4,0-0.9-0.2-1.3c-0.6-0.6-1.7-0.6-2.4-0.6L54.4,31v-1.5c0-0.6,0-1.3-0.4-1.7c-0.9-1.3-3.5-0.7-4.8-0.4l-1.1,0.4
	l-0.4-1.1c-0.2-0.6-0.7-1.5-1.3-1.7c-1.1-0.4-2.4,0.9-3,1.7l-1.1,1.3l-0.9-1.5c-0.4-0.6-0.9-1.3-1.7-1.5c-1.9-0.4-4.1,3-4.8,4.4
	l-0.7,1.3l-1.3-0.9c-0.4-0.4-1.1-0.7-1.9-0.7c-2,0.4-3,4.4-3.1,6.1L27.7,37l-1.5-0.7c-0.7-0.4-2.2-0.7-3-0.4c-2,1.1-0.7,6.5-0.4,8.1
	l0.4,1.5h-1.7c-0.7,0.2-1.7,0.2-2,0.7c-1.1,1.3,0.6,4.3,1.3,5.4l0.7,1.3l-1.5,0.6c-0.4,0.2-0.9,0.4-1.1,0.7
	c-1.1,1.9,1.5,5.2,2.6,6.5l0.9,1.1l-1.3,0.7c-0.4,0.4-0.7,0.6-0.9,1.1c-0.6,1.9,3.3,4.6,4.6,5.4l1.3,0.9L25.1,71
	c-0.2,0.2-0.4,0.6-0.4,0.7c-0.2,1.5,3.5,3,4.6,3.3c3.5-1.1,11.3-5.7,14.6-3.7c0.6,0.4,1.1,0.9,1.3,1.5l0.2,0.6L45.3,74
	c-0.2,0.4-0.6,1.7,0,2l0.7,0.7l-0.4,0.9c0,0.2-0.2,0.4,0,0.6l0.6,0.7l-0.6,0.7c-0.2,0.4-0.6,0.7-0.4,1.1l0.6,0.7l-0.6,0.9
	c-0.2,0.2-0.6,0.7-0.4,0.9l0.9,0.7l-0.6,1.1c-0.2,0.4-0.9,1.5-0.6,1.9l1.1,0.7L45.3,89c0,0.4-0.6,1.1,0,1.3l0.9,0.6L45.9,92
	c0.4,0.4,2-0.4,2.4-0.6c1.7-0.6,3.3-1.5,5-2.2c1.1-0.6,2.4-1.3,3.5-1.9l0.4-0.2l2.2,0.6c0.2,0,0.4,0,0.6,0.2l0.2,0.2v0.6
	c0.6,0.9,0.2,2.4-0.2,3.3v0.2c-6.6,3.4-24,6.3-35,8.3c9.5,8.1,21.8,13,35.2,13c17.4,0,32.9-8.2,42.8-20.9c-3.3-0.7-6.6-1.1-10-1.3
	h-0.2h-0.2c-0.4,0-0.7-0.2-1.1-0.4l-1.3-0.7l0.9-1.3c0.6-0.7,2.2-1.9,3-2.4c2-1.1,4.3-2,6.5-2.8c2.6-0.9,6.1-1.9,8.9-1.9
	c0,0,0,0,0,0c0.9-1.9,1.6-3.9,2.3-5.9l-0.7,0C103.8,75.3,99.6,77.3,93.1,80.1z M67.9,89.9l-2.8,0.7c-4.1-2.6-0.7-9.4,2.2-8.9
	c0.2,0.7-0.2,1.5-0.9,2.2C67.9,85.3,71.1,88.6,67.9,89.9z"/>
</svg>
